<?xml version="1.0" standalone="no"?>
<!DOCTYPE svg PUBLIC "-//W3C//DTD SVG 20010904//EN"
 "http://www.w3.org/TR/2001/REC-SVG-20010904/DTD/svg10.dtd">
<svg version="1.0" xmlns="http://www.w3.org/2000/svg"
 width="260.000000pt" height="260.000000pt" viewBox="0 0 260.000000 260.000000"
 preserveAspectRatio="xMidYMid meet">
<metadata>
Created by potrace 1.14, written by Peter Selinger 2001-2017
</metadata>
<g transform="translate(0.000000,260.000000) scale(0.100000,-0.100000)"
fill="#000000" stroke="none">
<path d="M0 1300 l0 -1300 1300 0 1300 0 0 1300 0 1300 -1300 0 -1300 0 0
-1300z m972 742 c85 -29 171 -104 213 -189 27 -54 30 -66 30 -168 0 -103 -2
-113 -30 -163 -39 -71 -112 -136 -178 -158 l-52 -17 46 -12 c122 -32 213 -117
250 -236 38 -121 14 -272 -58 -366 -45 -59 -66 -77 -125 -108 -95 -50 -143
-55 -545 -55 l-373 0 0 751 0 750 378 -3 c358 -4 380 -5 444 -26z m828 -597
l0 -625 320 0 320 0 0 -125 0 -125 -460 0 -460 0 0 750 0 750 140 0 140 0 0
-625z"/>
<path d="M410 1644 l0 -206 198 4 c182 3 200 5 239 26 24 12 55 41 70 64 25
37 28 51 28 122 0 99 -21 136 -99 172 -48 22 -62 24 -243 24 l-193 0 0 -206z"/>
<path d="M410 1010 l0 -210 204 0 c215 0 247 5 305 48 83 62 95 224 23 306 -9
10 -39 29 -67 42 -47 23 -61 24 -257 24 l-208 0 0 -210z"/>
</g>
</svg>
